<?xml version="1.0" encoding="utf-8"?>
<!-- Generator: Adobe Illustrator 19.0.0, SVG Export Plug-In . SVG Version: 6.00 Build 0)  -->
<svg version="1.1" xmlns="http://www.w3.org/2000/svg" xmlns:xlink="http://www.w3.org/1999/xlink" x="0px" y="0px"
	 viewBox="0 0 1920 1080" style="enable-background:new 0 0 1920 1080;" xml:space="preserve">
<style type="text/css">
	.st0{clip-path:url(#XMLID_23_);fill:#28B67A;}
	.st1{clip-path:url(#XMLID_23_);fill:#282829;}
	.st2{clip-path:url(#XMLID_23_);fill:none;stroke:#28B67A;stroke-width:5;stroke-miterlimit:10;}
	.st3{clip-path:url(#XMLID_23_);fill:#FFFFFF;}
	.st4{clip-path:url(#XMLID_23_);fill:#438F61;}
	.st5{clip-path:url(#XMLID_23_);fill:#007E3C;}
	.st6{clip-path:url(#XMLID_23_);fill:#099E43;}
	.st7{clip-path:url(#XMLID_23_);fill:#005C27;}
</style>
<g id="Layer_27">
	<g id="Layer_1">
	</g>
	<g id="Layer_2">
	</g>
	<g id="Left_4:3_Side">
		<g id="Left_4:3_Side_Pattern">
		</g>
		<g id="Left_4:3_Side_Pattern_copy">
		</g>
	</g>
	<g id="Right_4:3_Side">
		<g id="Right_4:3_Side_Pattern_copy_2_1_">
		</g>
		<g id="Right_4:3_Side_Pattern_copy_2">
		</g>
	</g>
	<g id="Left_Side_Pattern">
		<g id="Pattern">
		</g>
		<g id="Pattern_copy">
		</g>
		<g id="Pattern_copy_2">
		</g>
		<g id="Pattern_copy_3">
		</g>
		<g id="Pattern_copy_7">
		</g>
		<g id="Pattern_copy_6">
		</g>
		<g id="Pattern_copy_5">
		</g>
		<g id="Pattern_copy_4">
		</g>
	</g>
	<g id="Right_Side_Pattern">
		<g id="Pattern_copy_8_7_">
		</g>
		<g id="Pattern_copy_8_6_">
		</g>
		<g id="Pattern_copy_8_5_">
		</g>
		<g id="Pattern_copy_8_4_">
		</g>
		<g id="Pattern_copy_8_3_">
		</g>
		<g id="Pattern_copy_8_2_">
		</g>
		<g id="Pattern_copy_8_1_">
		</g>
		<g id="Pattern_copy_8">
		</g>
	</g>
</g>
<g id="Layer_28">
	<g id="XMLID_21_">
		<defs>
			<rect id="XMLID_1_" x="0" width="1920" height="1080"/>
		</defs>
		<clipPath id="XMLID_23_">
			<use xlink:href="#XMLID_1_"  style="overflow:visible;"/>
		</clipPath>
		<rect id="XMLID_3_" x="4.7" y="3.7" class="st0" width="1920" height="1080"/>
		<rect id="XMLID_4_" x="240" class="st1" width="1440" height="1080"/>
		
			<rect id="XMLID_5_" x="113" y="16.2" transform="matrix(0.7071 -0.7071 0.7071 0.7071 -19.805 184.6585)" class="st2" width="200" height="200"/>
		
			<rect id="XMLID_7_" x="113" y="157.7" transform="matrix(0.7071 -0.7071 0.7071 0.7071 -119.805 226.0798)" class="st2" width="200" height="200"/>
		
			<rect id="XMLID_8_" x="113" y="299.1" transform="matrix(0.7071 -0.7071 0.7071 0.7071 -219.805 267.5012)" class="st2" width="200" height="200"/>
		
			<rect id="XMLID_9_" x="113" y="440.5" transform="matrix(0.7071 -0.7071 0.7071 0.7071 -319.805 308.9225)" class="st2" width="200" height="200"/>
		
			<rect id="XMLID_10_" x="113" y="581.9" transform="matrix(0.7071 -0.7071 0.7071 0.7071 -419.805 350.3439)" class="st2" width="200" height="200"/>
		
			<rect id="XMLID_11_" x="113" y="723.3" transform="matrix(0.7071 -0.7071 0.7071 0.7071 -519.8049 391.7652)" class="st2" width="200" height="200"/>
		
			<rect id="XMLID_12_" x="113" y="864.8" transform="matrix(0.7071 -0.7071 0.7071 0.7071 -619.8049 433.1866)" class="st2" width="200" height="200"/>
		
			<rect id="XMLID_18_" x="182.8" y="16.2" transform="matrix(0.7071 -0.7071 0.7071 0.7071 0.6515 234.0447)" class="st2" width="200" height="200"/>
		
			<rect id="XMLID_17_" x="182.8" y="157.7" transform="matrix(0.7071 -0.7071 0.7071 0.7071 -99.3485 275.4661)" class="st2" width="200" height="200"/>
		
			<rect id="XMLID_16_" x="182.8" y="299.1" transform="matrix(0.7071 -0.7071 0.7071 0.7071 -199.3485 316.8874)" class="st2" width="200" height="200"/>
		
			<rect id="XMLID_15_" x="182.8" y="440.5" transform="matrix(0.7071 -0.7071 0.7071 0.7071 -299.3485 358.3088)" class="st2" width="200" height="200"/>
		
			<rect id="XMLID_14_" x="182.8" y="581.9" transform="matrix(0.7071 -0.7071 0.7071 0.7071 -399.3485 399.7301)" class="st2" width="200" height="200"/>
		
			<rect id="XMLID_13_" x="182.8" y="723.3" transform="matrix(0.7071 -0.7071 0.7071 0.7071 -499.3485 441.1515)" class="st2" width="200" height="200"/>
		
			<rect id="XMLID_6_" x="182.8" y="864.8" transform="matrix(0.7071 -0.7071 0.7071 0.7071 -599.3485 482.5728)" class="st2" width="200" height="200"/>
		
			<rect id="XMLID_32_" x="1537.1" y="16.2" transform="matrix(0.7071 -0.7071 0.7071 0.7071 397.298 1191.6342)" class="st2" width="200" height="200"/>
		
			<rect id="XMLID_31_" x="1537.1" y="157.7" transform="matrix(0.7071 -0.7071 0.7071 0.7071 297.298 1233.0554)" class="st2" width="200" height="200"/>
		
			<rect id="XMLID_30_" x="1537.1" y="299.1" transform="matrix(0.7071 -0.7071 0.7071 0.7071 197.298 1274.4768)" class="st2" width="200" height="200"/>
		
			<rect id="XMLID_29_" x="1537.1" y="440.5" transform="matrix(0.7071 -0.7071 0.7071 0.7071 97.298 1315.8982)" class="st2" width="200" height="200"/>
		
			<rect id="XMLID_28_" x="1537.1" y="581.9" transform="matrix(0.7071 -0.7071 0.7071 0.7071 -2.702 1357.3196)" class="st2" width="200" height="200"/>
		
			<rect id="XMLID_27_" x="1537.1" y="723.3" transform="matrix(0.7071 -0.7071 0.7071 0.7071 -102.702 1398.7408)" class="st2" width="200" height="200"/>
		
			<rect id="XMLID_26_" x="1537.1" y="864.8" transform="matrix(0.7071 -0.7071 0.7071 0.7071 -202.702 1440.1622)" class="st2" width="200" height="200"/>
		
			<rect id="XMLID_40_" x="1606.9" y="16.2" transform="matrix(0.7071 -0.7071 0.7071 0.7071 417.7545 1241.0204)" class="st2" width="200" height="200"/>
		
			<rect id="XMLID_39_" x="1606.9" y="157.7" transform="matrix(0.7071 -0.7071 0.7071 0.7071 317.7545 1282.4418)" class="st2" width="200" height="200"/>
		
			<rect id="XMLID_38_" x="1606.9" y="299.1" transform="matrix(0.7071 -0.7071 0.7071 0.7071 217.7545 1323.863)" class="st2" width="200" height="200"/>
		
			<rect id="XMLID_37_" x="1606.9" y="440.5" transform="matrix(0.7071 -0.7071 0.7071 0.7071 117.7545 1365.2844)" class="st2" width="200" height="200"/>
		
			<rect id="XMLID_36_" x="1606.9" y="581.9" transform="matrix(0.7071 -0.7071 0.7071 0.7071 17.7545 1406.7058)" class="st2" width="200" height="200"/>
		
			<rect id="XMLID_35_" x="1606.9" y="723.3" transform="matrix(0.7071 -0.7071 0.7071 0.7071 -82.2455 1448.1272)" class="st2" width="200" height="200"/>
		
			<rect id="XMLID_34_" x="1606.9" y="864.8" transform="matrix(0.7071 -0.7071 0.7071 0.7071 -182.2455 1489.5485)" class="st2" width="200" height="200"/>
		<rect id="XMLID_19_" y="-4.9" class="st3" width="120" height="120"/>
		<polygon id="XMLID_20_" class="st4" points="0,116.5 60,54.8 120,116.5 		"/>
		<polygon id="XMLID_24_" class="st5" points="0,-7 61.5,55.1 0,117.3 		"/>
		<polygon id="XMLID_33_" class="st6" points="120.5,117.3 60.1,55.1 120.5,-7 		"/>
		<polygon id="XMLID_25_" class="st7" points="120.5,-7 60.2,55.8 0,-7 		"/>
		<rect id="XMLID_113_" y="479.7" class="st3" width="120" height="120"/>
		<polygon id="XMLID_112_" class="st4" points="0,601.1 60,539.5 120,601.1 		"/>
		<polygon id="XMLID_111_" class="st5" points="0,477.7 61.5,539.8 0,601.9 		"/>
		<polygon id="XMLID_110_" class="st6" points="120.5,601.9 60.1,539.8 120.5,477.7 		"/>
		<polygon id="XMLID_109_" class="st7" points="120.5,477.7 60.2,540.5 0,477.7 		"/>
		<rect id="XMLID_202_" x="120.8" y="-5.1" class="st3" width="120" height="120"/>
		<polygon id="XMLID_201_" class="st4" points="119.4,-5.1 181,54.9 119.4,114.9 		"/>
		<polygon id="XMLID_200_" class="st5" points="242.9,-5.1 180.7,56.4 118.6,-5.1 		"/>
		<polygon id="XMLID_199_" class="st6" points="118.6,115.4 180.7,55 242.9,115.4 		"/>
		<polygon id="XMLID_198_" class="st7" points="242.9,115.4 180,55.1 242.9,-5.1 		"/>
		<rect id="XMLID_197_" x="120.8" y="479.5" class="st3" width="120" height="120"/>
		<polygon id="XMLID_196_" class="st4" points="119.4,479.5 181,539.5 119.4,599.5 		"/>
		<polygon id="XMLID_195_" class="st5" points="242.9,479.5 180.7,541 118.6,479.5 		"/>
		<polygon id="XMLID_194_" class="st6" points="118.6,600 180.7,539.6 242.9,600 		"/>
		<polygon id="XMLID_193_" class="st7" points="242.9,600 180,539.8 242.9,479.5 		"/>
		<rect id="XMLID_47_" x="0.2" y="117" class="st3" width="120" height="120"/>
		<polygon id="XMLID_46_" class="st4" points="121.6,237 59.9,177 121.6,117 		"/>
		<polygon id="XMLID_45_" class="st5" points="-1.9,237 60.2,175.5 122.4,237 		"/>
		<polygon id="XMLID_44_" class="st6" points="122.4,116.5 60.2,176.9 -1.9,116.5 		"/>
		<polygon id="XMLID_43_" class="st7" points="-1.9,116.5 60.9,176.7 -1.9,237 		"/>
		<rect id="XMLID_103_" x="0.2" y="601.6" class="st3" width="120" height="120"/>
		<polygon id="XMLID_102_" class="st4" points="121.6,721.6 59.9,661.6 121.6,601.6 		"/>
		<polygon id="XMLID_101_" class="st5" points="-1.9,721.6 60.2,660.1 122.4,721.6 		"/>
		<polygon id="XMLID_100_" class="st6" points="122.4,601.1 60.2,661.5 -1.9,601.1 		"/>
		<polygon id="XMLID_99_" class="st7" points="-1.9,601.1 60.9,661.4 -1.9,721.6 		"/>
		<rect id="XMLID_138_" x="0.2" y="966.7" class="st3" width="120" height="120"/>
		<polygon id="XMLID_137_" class="st4" points="121.6,1086.7 59.9,1026.7 121.6,966.7 		"/>
		<polygon id="XMLID_136_" class="st5" points="-1.9,1086.7 60.2,1025.2 122.4,1086.7 		"/>
		<polygon id="XMLID_135_" class="st6" points="122.4,966.2 60.2,1026.6 -1.9,966.2 		"/>
		<polygon id="XMLID_134_" class="st7" points="-1.9,966.2 60.9,1026.4 -1.9,1086.7 		"/>
		<rect id="XMLID_167_" x="120.3" y="116.7" class="st3" width="120" height="120"/>
		<polygon id="XMLID_166_" class="st4" points="120.3,238.1 180.3,176.4 240.3,238.1 		"/>
		<polygon id="XMLID_165_" class="st5" points="120.3,114.6 181.7,176.7 120.3,238.9 		"/>
		<polygon id="XMLID_164_" class="st6" points="240.7,238.9 180.4,176.7 240.7,114.6 		"/>
		<polygon id="XMLID_163_" class="st7" points="240.7,114.6 180.5,177.4 120.3,114.6 		"/>
		<rect id="XMLID_162_" x="120.3" y="601.3" class="st3" width="120" height="120"/>
		<polygon id="XMLID_161_" class="st4" points="120.3,722.7 180.3,661.1 240.3,722.7 		"/>
		<polygon id="XMLID_160_" class="st5" points="120.3,599.3 181.7,661.4 120.3,723.5 		"/>
		<polygon id="XMLID_159_" class="st6" points="240.7,723.5 180.4,661.4 240.7,599.3 		"/>
		<polygon id="XMLID_158_" class="st7" points="240.7,599.3 180.5,662.1 120.3,599.3 		"/>
		<rect id="XMLID_157_" x="120.3" y="966.4" class="st3" width="120" height="120"/>
		<polygon id="XMLID_156_" class="st4" points="120.3,1087.8 180.3,1026.1 240.3,1087.8 		"/>
		<polygon id="XMLID_155_" class="st5" points="120.3,964.3 181.7,1026.4 120.3,1088.6 		"/>
		<polygon id="XMLID_154_" class="st6" points="240.7,1088.6 180.4,1026.4 240.7,964.3 		"/>
		<polygon id="XMLID_153_" class="st7" points="240.7,964.3 180.5,1027.1 120.3,964.3 		"/>
		<rect id="XMLID_93_" y="238.1" class="st3" width="120" height="120"/>
		<polygon id="XMLID_92_" class="st4" points="0,359.5 60,297.8 120,359.5 		"/>
		<polygon id="XMLID_91_" class="st5" points="0,236 61.5,298.1 0,360.2 		"/>
		<polygon id="XMLID_90_" class="st6" points="120.5,360.2 60.1,298.1 120.5,236 		"/>
		<polygon id="XMLID_89_" class="st7" points="120.5,236 60.2,298.8 0,236 		"/>
		<rect id="XMLID_88_" y="722.7" class="st3" width="120" height="120"/>
		<polygon id="XMLID_87_" class="st4" points="0,844.1 60,782.5 120,844.1 		"/>
		<polygon id="XMLID_86_" class="st5" points="0,720.6 61.5,782.8 0,844.9 		"/>
		<polygon id="XMLID_85_" class="st6" points="120.5,844.9 60.1,782.8 120.5,720.6 		"/>
		<polygon id="XMLID_84_" class="st7" points="120.5,720.6 60.2,783.5 0,720.6 		"/>
		<rect id="XMLID_122_" x="120.8" y="237.9" class="st3" width="120" height="120"/>
		<polygon id="XMLID_121_" class="st4" points="119.4,237.9 181,297.9 119.4,357.9 		"/>
		<polygon id="XMLID_120_" class="st5" points="242.9,237.9 180.7,299.3 118.6,237.9 		"/>
		<polygon id="XMLID_119_" class="st6" points="118.6,358.3 180.7,298 242.9,358.3 		"/>
		<polygon id="XMLID_118_" class="st7" points="242.9,358.3 180,298.1 242.9,237.9 		"/>
		<rect id="XMLID_117_" x="120.8" y="722.5" class="st3" width="120" height="120"/>
		<polygon id="XMLID_116_" class="st4" points="119.4,722.5 181,782.5 119.4,842.5 		"/>
		<polygon id="XMLID_115_" class="st5" points="242.9,722.5 180.7,784 118.6,722.5 		"/>
		<polygon id="XMLID_114_" class="st6" points="118.6,843 180.7,782.6 242.9,843 		"/>
		<polygon id="XMLID_108_" class="st7" points="242.9,843 180,782.8 242.9,722.5 		"/>
		<rect id="XMLID_83_" x="0.2" y="360" class="st3" width="120" height="120"/>
		<polygon id="XMLID_82_" class="st4" points="121.6,480 59.9,420 121.6,360 		"/>
		<polygon id="XMLID_81_" class="st5" points="-1.9,480 60.2,418.5 122.4,480 		"/>
		<polygon id="XMLID_80_" class="st6" points="122.4,359.5 60.2,419.8 -1.9,359.5 		"/>
		<polygon id="XMLID_79_" class="st7" points="-1.9,359.5 60.9,419.7 -1.9,480 		"/>
		<rect id="XMLID_67_" x="0.2" y="844.6" class="st3" width="120" height="120"/>
		<polygon id="XMLID_66_" class="st4" points="121.6,964.6 59.9,904.6 121.6,844.6 		"/>
		<polygon id="XMLID_65_" class="st5" points="-1.9,964.6 60.2,903.1 122.4,964.6 		"/>
		<polygon id="XMLID_64_" class="st6" points="122.4,844.1 60.2,904.5 -1.9,844.1 		"/>
		<polygon id="XMLID_63_" class="st7" points="-1.9,844.1 60.9,904.4 -1.9,964.6 		"/>
		<rect id="XMLID_62_" x="120.3" y="359.7" class="st3" width="120" height="120"/>
		<polygon id="XMLID_61_" class="st4" points="120.3,481.1 180.3,419.4 240.3,481.1 		"/>
		<polygon id="XMLID_60_" class="st5" points="120.3,357.6 181.7,419.7 120.3,481.8 		"/>
		<polygon id="XMLID_59_" class="st6" points="240.7,481.8 180.4,419.7 240.7,357.6 		"/>
		<polygon id="XMLID_58_" class="st7" points="240.7,357.6 180.5,420.4 120.3,357.6 		"/>
		<rect id="XMLID_57_" x="120.3" y="844.3" class="st3" width="120" height="120"/>
		<polygon id="XMLID_56_" class="st4" points="120.3,965.7 180.3,904.1 240.3,965.7 		"/>
		<polygon id="XMLID_55_" class="st5" points="120.3,842.2 181.7,904.4 120.3,966.5 		"/>
		<polygon id="XMLID_54_" class="st6" points="240.7,966.5 180.4,904.4 240.7,842.2 		"/>
		<polygon id="XMLID_53_" class="st7" points="240.7,842.2 180.5,905.1 120.3,842.2 		"/>
		<rect id="XMLID_211_" x="1681.9" y="-4.9" class="st3" width="120" height="120"/>
		<polygon id="XMLID_210_" class="st4" points="1681.9,116.5 1741.9,54.8 1801.9,116.5 		"/>
		<polygon id="XMLID_209_" class="st5" points="1681.9,-7 1743.4,55.1 1681.9,117.3 		"/>
		<polygon id="XMLID_208_" class="st6" points="1802.4,117.3 1742,55.1 1802.4,-7 		"/>
		<polygon id="XMLID_207_" class="st7" points="1802.4,-7 1742.1,55.8 1681.9,-7 		"/>
		<rect id="XMLID_206_" x="1681.9" y="479.7" class="st3" width="120" height="120"/>
		<polygon id="XMLID_205_" class="st4" points="1681.9,601.1 1741.9,539.5 1801.9,601.1 		"/>
		<polygon id="XMLID_204_" class="st5" points="1681.9,477.7 1743.4,539.8 1681.9,601.9 		"/>
		<polygon id="XMLID_203_" class="st6" points="1802.4,601.9 1742,539.8 1802.4,477.7 		"/>
		<polygon id="XMLID_192_" class="st7" points="1802.4,477.7 1742.1,540.5 1681.9,477.7 		"/>
		<rect id="XMLID_292_" x="1802.7" y="-5.1" class="st3" width="120" height="120"/>
		<polygon id="XMLID_291_" class="st4" points="1801.3,-5.1 1862.9,54.9 1801.3,114.9 		"/>
		<polygon id="XMLID_290_" class="st5" points="1924.7,-5.1 1862.6,56.4 1800.5,-5.1 		"/>
		<polygon id="XMLID_289_" class="st6" points="1800.5,115.4 1862.6,55 1924.7,115.4 		"/>
		<polygon id="XMLID_288_" class="st7" points="1924.7,115.4 1861.9,55.1 1924.7,-5.1 		"/>
		<rect id="XMLID_287_" x="1802.7" y="479.5" class="st3" width="120" height="120"/>
		<polygon id="XMLID_286_" class="st4" points="1801.3,479.5 1862.9,539.5 1801.3,599.5 		"/>
		<polygon id="XMLID_285_" class="st5" points="1924.7,479.5 1862.6,541 1800.5,479.5 		"/>
		<polygon id="XMLID_284_" class="st6" points="1800.5,600 1862.6,539.6 1924.7,600 		"/>
		<polygon id="XMLID_283_" class="st7" points="1924.7,600 1861.9,539.8 1924.7,479.5 		"/>
		<rect id="XMLID_181_" x="1682.1" y="117" class="st3" width="120" height="120"/>
		<polygon id="XMLID_180_" class="st4" points="1803.5,237 1741.8,177 1803.5,117 		"/>
		<polygon id="XMLID_179_" class="st5" points="1680,237 1742.1,175.5 1804.3,237 		"/>
		<polygon id="XMLID_178_" class="st6" points="1804.3,116.5 1742.1,176.9 1680,116.5 		"/>
		<polygon id="XMLID_177_" class="st7" points="1680,116.5 1742.8,176.7 1680,237 		"/>
		<rect id="XMLID_176_" x="1682.1" y="601.6" class="st3" width="120" height="120"/>
		<polygon id="XMLID_175_" class="st4" points="1803.5,721.6 1741.8,661.6 1803.5,601.6 		"/>
		<polygon id="XMLID_174_" class="st5" points="1680,721.6 1742.1,660.1 1804.3,721.6 		"/>
		<polygon id="XMLID_173_" class="st6" points="1804.3,601.1 1742.1,661.5 1680,601.1 		"/>
		<polygon id="XMLID_172_" class="st7" points="1680,601.1 1742.8,661.4 1680,721.6 		"/>
		<rect id="XMLID_171_" x="1682.1" y="966.7" class="st3" width="120" height="120"/>
		<polygon id="XMLID_170_" class="st4" points="1803.5,1086.7 1741.8,1026.7 1803.5,966.7 		"/>
		<polygon id="XMLID_169_" class="st5" points="1680,1086.7 1742.1,1025.2 1804.3,1086.7 		"/>
		<polygon id="XMLID_168_" class="st6" points="1804.3,966.2 1742.1,1026.6 1680,966.2 		"/>
		<polygon id="XMLID_152_" class="st7" points="1680,966.2 1742.8,1026.4 1680,1086.7 		"/>
		<rect id="XMLID_267_" x="1802.1" y="116.7" class="st3" width="120" height="120"/>
		<polygon id="XMLID_266_" class="st4" points="1802.1,238.1 1862.1,176.4 1922.1,238.1 		"/>
		<polygon id="XMLID_265_" class="st5" points="1802.1,114.6 1863.6,176.7 1802.1,238.9 		"/>
		<polygon id="XMLID_264_" class="st6" points="1922.6,238.9 1862.2,176.7 1922.6,114.6 		"/>
		<polygon id="XMLID_263_" class="st7" points="1922.6,114.6 1862.4,177.4 1802.1,114.6 		"/>
		<rect id="XMLID_262_" x="1802.1" y="601.3" class="st3" width="120" height="120"/>
		<polygon id="XMLID_261_" class="st4" points="1802.1,722.7 1862.1,661.1 1922.1,722.7 		"/>
		<polygon id="XMLID_260_" class="st5" points="1802.1,599.3 1863.6,661.4 1802.1,723.5 		"/>
		<polygon id="XMLID_259_" class="st6" points="1922.6,723.5 1862.2,661.4 1922.6,599.3 		"/>
		<polygon id="XMLID_258_" class="st7" points="1922.6,599.3 1862.4,662.1 1802.1,599.3 		"/>
		<rect id="XMLID_257_" x="1802.1" y="966.4" class="st3" width="120" height="120"/>
		<polygon id="XMLID_256_" class="st4" points="1802.1,1087.8 1862.1,1026.1 1922.1,1087.8 		"/>
		<polygon id="XMLID_255_" class="st5" points="1802.1,964.3 1863.6,1026.4 1802.1,1088.6 		"/>
		<polygon id="XMLID_254_" class="st6" points="1922.6,1088.6 1862.2,1026.4 1922.6,964.3 		"/>
		<polygon id="XMLID_253_" class="st7" points="1922.6,964.3 1862.4,1027.1 1802.1,964.3 		"/>
		<rect id="XMLID_131_" x="1681.9" y="238.1" class="st3" width="120" height="120"/>
		<polygon id="XMLID_130_" class="st4" points="1681.9,359.5 1741.9,297.8 1801.9,359.5 		"/>
		<polygon id="XMLID_129_" class="st5" points="1681.9,236 1743.4,298.1 1681.9,360.2 		"/>
		<polygon id="XMLID_128_" class="st6" points="1802.4,360.2 1742,298.1 1802.4,236 		"/>
		<polygon id="XMLID_127_" class="st7" points="1802.4,236 1742.1,298.8 1681.9,236 		"/>
		<rect id="XMLID_126_" x="1681.9" y="722.7" class="st3" width="120" height="120"/>
		<polygon id="XMLID_125_" class="st4" points="1681.9,844.1 1741.9,782.5 1801.9,844.1 		"/>
		<polygon id="XMLID_124_" class="st5" points="1681.9,720.6 1743.4,782.8 1681.9,844.9 		"/>
		<polygon id="XMLID_123_" class="st6" points="1802.4,844.9 1742,782.8 1802.4,720.6 		"/>
		<polygon id="XMLID_107_" class="st7" points="1802.4,720.6 1742.1,783.5 1681.9,720.6 		"/>
		<rect id="XMLID_242_" x="1802.7" y="237.9" class="st3" width="120" height="120"/>
		<polygon id="XMLID_241_" class="st4" points="1801.3,237.9 1862.9,297.9 1801.3,357.9 		"/>
		<polygon id="XMLID_240_" class="st5" points="1924.7,237.9 1862.6,299.3 1800.5,237.9 		"/>
		<polygon id="XMLID_239_" class="st6" points="1800.5,358.3 1862.6,298 1924.7,358.3 		"/>
		<polygon id="XMLID_238_" class="st7" points="1924.7,358.3 1861.9,298.1 1924.7,237.9 		"/>
		<rect id="XMLID_237_" x="1802.7" y="722.5" class="st3" width="120" height="120"/>
		<polygon id="XMLID_236_" class="st4" points="1801.3,722.5 1862.9,782.5 1801.3,842.5 		"/>
		<polygon id="XMLID_235_" class="st5" points="1924.7,722.5 1862.6,784 1800.5,722.5 		"/>
		<polygon id="XMLID_234_" class="st6" points="1800.5,843 1862.6,782.6 1924.7,843 		"/>
		<polygon id="XMLID_233_" class="st7" points="1924.7,843 1861.9,782.8 1924.7,722.5 		"/>
		<rect id="XMLID_76_" x="1682.1" y="360" class="st3" width="120" height="120"/>
		<polygon id="XMLID_75_" class="st4" points="1803.5,480 1741.8,420 1803.5,360 		"/>
		<polygon id="XMLID_74_" class="st5" points="1680,480 1742.1,418.5 1804.3,480 		"/>
		<polygon id="XMLID_73_" class="st6" points="1804.3,359.5 1742.1,419.8 1680,359.5 		"/>
		<polygon id="XMLID_72_" class="st7" points="1680,359.5 1742.8,419.7 1680,480 		"/>
		<rect id="XMLID_71_" x="1682.1" y="844.6" class="st3" width="120" height="120"/>
		<polygon id="XMLID_70_" class="st4" points="1803.5,964.6 1741.8,904.6 1803.5,844.6 		"/>
		<polygon id="XMLID_69_" class="st5" points="1680,964.6 1742.1,903.1 1804.3,964.6 		"/>
		<polygon id="XMLID_68_" class="st6" points="1804.3,844.1 1742.1,904.5 1680,844.1 		"/>
		<polygon id="XMLID_52_" class="st7" points="1680,844.1 1742.8,904.4 1680,964.6 		"/>
		<rect id="XMLID_222_" x="1802.1" y="359.7" class="st3" width="120" height="120"/>
		<polygon id="XMLID_221_" class="st4" points="1802.1,481.1 1862.1,419.4 1922.1,481.1 		"/>
		<polygon id="XMLID_220_" class="st5" points="1802.1,357.6 1863.6,419.7 1802.1,481.8 		"/>
		<polygon id="XMLID_219_" class="st6" points="1922.6,481.8 1862.2,419.7 1922.6,357.6 		"/>
		<polygon id="XMLID_218_" class="st7" points="1922.6,357.6 1862.4,420.4 1802.1,357.6 		"/>
		<rect id="XMLID_217_" x="1802.1" y="844.3" class="st3" width="120" height="120"/>
		<polygon id="XMLID_216_" class="st4" points="1802.1,965.7 1862.1,904.1 1922.1,965.7 		"/>
		<polygon id="XMLID_215_" class="st5" points="1802.1,842.2 1863.6,904.4 1802.1,966.5 		"/>
		<polygon id="XMLID_214_" class="st6" points="1922.6,966.5 1862.2,904.4 1922.6,842.2 		"/>
		<polygon id="XMLID_213_" class="st7" points="1922.6,842.2 1862.4,905.1 1802.1,842.2 		"/>
	</g>
</g>
</svg>
